%TF.GenerationSoftware,KiCad,Pcbnew,(5.1.6)-1*%
%TF.CreationDate,2021-03-23T13:45:06+09:00*%
%TF.ProjectId,FIG_DISPENSER_v1.0,4649475f-4449-4535-9045-4e5345525f76,rev?*%
%TF.SameCoordinates,Original*%
%TF.FileFunction,Soldermask,Bot*%
%TF.FilePolarity,Negative*%
%FSLAX46Y46*%
G04 Gerber Fmt 4.6, Leading zero omitted, Abs format (unit mm)*
G04 Created by KiCad (PCBNEW (5.1.6)-1) date 2021-03-23 13:45:06*
%MOMM*%
%LPD*%
G01*
G04 APERTURE LIST*
%ADD10C,3.500000*%
%ADD11C,3.100000*%
%ADD12C,1.800000*%
%ADD13C,2.100000*%
%ADD14R,2.100000X2.100000*%
%ADD15O,1.800000X1.800000*%
%ADD16R,1.800000X1.800000*%
%ADD17O,2.500000X2.500000*%
%ADD18R,2.500000X2.500000*%
%ADD19C,6.100000*%
%ADD20C,0.900000*%
%ADD21C,2.600000*%
%ADD22C,1.979600*%
%ADD23C,5.704000*%
%ADD24C,5.128000*%
G04 APERTURE END LIST*
D10*
%TO.C,J22*%
X75080000Y-29975000D03*
X71120000Y-29975000D03*
%TD*%
D11*
%TO.C,J5*%
X75355000Y-55261000D03*
%TD*%
%TO.C,J8*%
X60587500Y-99957000D03*
%TD*%
%TO.C,J9*%
X60587500Y-63889000D03*
%TD*%
%TO.C,J7*%
X77005000Y-103403000D03*
%TD*%
%TO.C,J11*%
X60265000Y-72911000D03*
%TD*%
D12*
%TO.C,J17*%
X43059000Y-56031000D03*
X43059000Y-58531000D03*
X43059000Y-61031000D03*
X43059000Y-63531000D03*
%TD*%
%TO.C,J16*%
X168770000Y-132495000D03*
X166270000Y-132495000D03*
X163770000Y-132495000D03*
X161270000Y-132495000D03*
%TD*%
D11*
%TO.C,J10*%
X60587500Y-108974000D03*
%TD*%
D12*
%TO.C,J15*%
X150440000Y-132595000D03*
X152940000Y-132595000D03*
X155440000Y-132595000D03*
X157940000Y-132595000D03*
%TD*%
%TO.C,J14*%
X139400000Y-132495000D03*
X141900000Y-132495000D03*
X144400000Y-132495000D03*
X146900000Y-132495000D03*
%TD*%
%TO.C,J13*%
X136070000Y-132541000D03*
X133570000Y-132541000D03*
X131070000Y-132541000D03*
X128570000Y-132541000D03*
%TD*%
D11*
%TO.C,J6*%
X75155000Y-76887000D03*
%TD*%
%TO.C,J12*%
X60587500Y-117991000D03*
%TD*%
D12*
%TO.C,J19*%
X43059000Y-103621000D03*
X43059000Y-101121000D03*
X43059000Y-98621000D03*
X43059000Y-96121000D03*
X43059000Y-106121000D03*
%TD*%
D11*
%TO.C,J4*%
X60587500Y-90813000D03*
%TD*%
D13*
%TO.C,C30*%
X42759000Y-118971000D03*
D14*
X42759000Y-113971000D03*
%TD*%
%TO.C,C37*%
X42759000Y-84491000D03*
D13*
X42759000Y-89491000D03*
%TD*%
D14*
%TO.C,C33*%
X42759000Y-69991000D03*
D13*
X42759000Y-74991000D03*
%TD*%
D14*
%TO.C,C25*%
X42759000Y-44131000D03*
D13*
X42759000Y-49131000D03*
%TD*%
%TO.C,J24*%
G36*
G01*
X68642294Y-135271000D02*
X67371706Y-135271000D01*
G75*
G02*
X67107000Y-135006294I0J264706D01*
G01*
X67107000Y-133735706D01*
G75*
G02*
X67371706Y-133471000I264706J0D01*
G01*
X68642294Y-133471000D01*
G75*
G02*
X68907000Y-133735706I0J-264706D01*
G01*
X68907000Y-135006294D01*
G75*
G02*
X68642294Y-135271000I-264706J0D01*
G01*
G37*
D12*
X70547000Y-134371000D03*
X73087000Y-134371000D03*
X75627000Y-134371000D03*
X78167000Y-134371000D03*
X68007000Y-131831000D03*
X70547000Y-131831000D03*
X73087000Y-131831000D03*
X75627000Y-131831000D03*
X78167000Y-131831000D03*
%TD*%
D15*
%TO.C,J18*%
X184610000Y-134840000D03*
X184610000Y-132300000D03*
D16*
X184610000Y-129760000D03*
%TD*%
D12*
%TO.C,BZ1*%
X104400000Y-91440000D03*
X98800000Y-91440000D03*
%TD*%
D17*
%TO.C,D8*%
X82525000Y-27360000D03*
D18*
X82525000Y-42600000D03*
%TD*%
D19*
%TO.C,H2*%
X40000000Y-30000000D03*
D20*
X42250000Y-30000000D03*
X41590990Y-31590990D03*
X40000000Y-32250000D03*
X38409010Y-31590990D03*
X37750000Y-30000000D03*
X38409010Y-28409010D03*
X40000000Y-27750000D03*
X41590990Y-28409010D03*
%TD*%
%TO.C,H3*%
X206590990Y-133409010D03*
X205000000Y-132750000D03*
X203409010Y-133409010D03*
X202750000Y-135000000D03*
X203409010Y-136590990D03*
X205000000Y-137250000D03*
X206590990Y-136590990D03*
X207250000Y-135000000D03*
D19*
X205000000Y-135000000D03*
%TD*%
%TO.C,H4*%
X205000000Y-30000000D03*
D20*
X207250000Y-30000000D03*
X206590990Y-31590990D03*
X205000000Y-32250000D03*
X203409010Y-31590990D03*
X202750000Y-30000000D03*
X203409010Y-28409010D03*
X205000000Y-27750000D03*
X206590990Y-28409010D03*
%TD*%
D11*
%TO.C,J2*%
X60587500Y-81923000D03*
%TD*%
%TO.C,J3*%
X60587500Y-54745000D03*
%TD*%
D20*
%TO.C,H5*%
X41590990Y-133409010D03*
X40000000Y-132750000D03*
X38409010Y-133409010D03*
X37750000Y-135000000D03*
X38409010Y-136590990D03*
X40000000Y-137250000D03*
X41590990Y-136590990D03*
X42250000Y-135000000D03*
D19*
X40000000Y-135000000D03*
%TD*%
D11*
%TO.C,J1*%
X60587500Y-45855000D03*
%TD*%
D12*
%TO.C,J21*%
X172018000Y-132588000D03*
X174518000Y-132588000D03*
X177018000Y-132588000D03*
X179518000Y-132588000D03*
%TD*%
%TO.C,J23*%
X202692000Y-68246000D03*
X202692000Y-65746000D03*
X202692000Y-63246000D03*
%TD*%
%TO.C,J25*%
X107168000Y-30226000D03*
X104668000Y-30226000D03*
X102168000Y-30226000D03*
%TD*%
%TO.C,J26*%
X91246000Y-29972000D03*
X93746000Y-29972000D03*
X96246000Y-29972000D03*
%TD*%
%TO.C,J29*%
X205486000Y-116138000D03*
X205486000Y-118638000D03*
X205486000Y-121138000D03*
X205486000Y-123638000D03*
%TD*%
%TO.C,U15*%
X90733000Y-116088000D03*
X90733000Y-128788000D03*
X90733000Y-136408000D03*
X121213000Y-136408000D03*
X121213000Y-128788000D03*
X121213000Y-126248000D03*
X121213000Y-116088000D03*
D21*
X93273000Y-113458000D03*
X118673000Y-113458000D03*
X93273000Y-139458000D03*
X118673000Y-139458000D03*
%TD*%
D13*
%TO.C,SW1*%
X200702000Y-74939000D03*
X200702000Y-79439000D03*
X194202000Y-74939000D03*
X194202000Y-79439000D03*
%TD*%
%TO.C,SW2*%
X194242000Y-88499000D03*
X194242000Y-83999000D03*
X200742000Y-88499000D03*
X200742000Y-83999000D03*
%TD*%
%TO.C,SW3*%
X194202000Y-97509000D03*
X194202000Y-93009000D03*
X200702000Y-97509000D03*
X200702000Y-93009000D03*
%TD*%
%TO.C,STM_RST*%
X55906000Y-132161000D03*
X55906000Y-136661000D03*
X49406000Y-132161000D03*
X49406000Y-136661000D03*
%TD*%
%TO.C,SW6*%
X202033000Y-44113000D03*
X206533000Y-44113000D03*
X202033000Y-50613000D03*
X206533000Y-50613000D03*
%TD*%
%TO.C,SW4*%
X200866000Y-102104000D03*
X200866000Y-106604000D03*
X194366000Y-102104000D03*
X194366000Y-106604000D03*
%TD*%
D12*
%TO.C,J33*%
X191068000Y-132080000D03*
X193568000Y-132080000D03*
X196068000Y-132080000D03*
%TD*%
%TO.C,J34*%
X172914000Y-33274000D03*
X170414000Y-33274000D03*
X167914000Y-33274000D03*
X165414000Y-33274000D03*
%TD*%
%TO.C,J35*%
X177352000Y-33020000D03*
X179852000Y-33020000D03*
X182352000Y-33020000D03*
X184852000Y-33020000D03*
%TD*%
D22*
%TO.C,U13*%
X141224000Y-40894000D03*
X143764000Y-40894000D03*
X146304000Y-40894000D03*
X148844000Y-40894000D03*
X151384000Y-40894000D03*
X151384000Y-68834000D03*
X148844000Y-68834000D03*
X146304000Y-68834000D03*
X143764000Y-68834000D03*
X141224000Y-68834000D03*
X143764000Y-61214000D03*
X141224000Y-61214000D03*
%TD*%
D12*
%TO.C,J20*%
X127294000Y-32004000D03*
X129794000Y-32004000D03*
X132294000Y-32004000D03*
X134794000Y-32004000D03*
X124794000Y-32004000D03*
%TD*%
%TO.C,J27*%
X207426000Y-80254000D03*
X207426000Y-82754000D03*
X207426000Y-85254000D03*
%TD*%
%TO.C,J28*%
X207186000Y-101744000D03*
X207186000Y-99244000D03*
X207186000Y-96744000D03*
%TD*%
D23*
%TO.C,J30*%
X59780000Y-33100000D03*
D24*
X59780000Y-26800000D03*
X54980000Y-30200000D03*
%TD*%
D12*
%TO.C,J31*%
X143804000Y-30480000D03*
X146304000Y-30480000D03*
X148804000Y-30480000D03*
X151304000Y-30480000D03*
X141304000Y-30480000D03*
%TD*%
D16*
%TO.C,J32*%
X162180000Y-96010000D03*
D15*
X162180000Y-89280000D03*
X159640000Y-96010000D03*
X159640000Y-89280000D03*
X157100000Y-96010000D03*
X157100000Y-89280000D03*
X154560000Y-96010000D03*
X154560000Y-89280000D03*
X152020000Y-96010000D03*
X152020000Y-89280000D03*
X149480000Y-96010000D03*
X149480000Y-89280000D03*
X146940000Y-96010000D03*
X146940000Y-89280000D03*
X144400000Y-96010000D03*
X144400000Y-89280000D03*
X141860000Y-96010000D03*
X141860000Y-89280000D03*
X139320000Y-96010000D03*
X139320000Y-89280000D03*
%TD*%
M02*
