M48
; DRILL file {KiCad (5.1.6)-1} date 03/23/21 13:45:02
; FORMAT={-:-/ absolute / inch / decimal}
; #@! TF.CreationDate,2021-03-23T13:45:02+09:00
; #@! TF.GenerationSoftware,Kicad,Pcbnew,(5.1.6)-1
; #@! TF.FileFunction,Plated,1,2,PTH
FMAT,2
INCH
T1C0.0118
T2C0.0157
T3C0.0197
T4C0.0394
T5C0.0400
T6C0.0433
T7C0.0472
T8C0.0591
T9C0.0709
T10C0.0787
T11C0.1181
T12C0.1320
T13C0.1471
%
G90
G05
T1
X2.1993Y-5.003
X2.5163Y-4.1319
X2.5754Y-2.0589
X2.5951Y-2.9705
X2.5951Y-3.0099
X2.5951Y-3.0886
X2.6344Y-2.1831
X2.6464Y-4.0257
X2.6487Y-2.1152
X2.6541Y-4.0926
X2.698Y-4.1516
X2.7132Y-2.1044
X2.7329Y-3.0296
X2.9723Y-3.1707
X3.0364Y-4.2136
X3.0846Y-2.8829
X3.1014Y-2.2548
X3.122Y-3.6585
X3.1273Y-2.2351
X3.1545Y-2.2154
X3.18Y-5.41
X3.1811Y-2.1957
X3.1959Y-3.7923
X3.2116Y-2.1772
X3.2441Y-2.1594
X3.2687Y-3.002
X3.3093Y-2.9973
X3.34Y-5.45
X3.5659Y-2.7431
X3.6037Y-2.4758
X3.61Y-3.14
X3.61Y-3.22
X3.6289Y-2.4504
X3.6348Y-2.5012
X3.6575Y-2.425
X3.6644Y-2.5266
X3.6693Y-2.5719
X3.6959Y-2.3996
X3.7372Y-2.3789
X3.7618Y-2.3474
X3.8157Y-4.0841
X3.8272Y-2.3608
X3.96Y-2.34
X3.96Y-2.69
X3.9708Y-4.2089
X3.9716Y-4.0207
X3.99Y-2.67
X4.0157Y-2.2929
X4.0806Y-4.0219
X4.09Y-1.5754
X4.09Y-2.29
X4.13Y-1.54
X4.13Y-2.3
X4.1919Y-2.0965
X4.22Y-2.9
X4.29Y-3.32
X4.2903Y-2.9997
X4.3198Y-3.0494
X4.32Y-3.3
X4.33Y-3.08
X4.33Y-3.22
X4.3302Y-3.2694
X4.34Y-3.16
X4.35Y-3.025
X4.35Y-3.11
X4.36Y-4.83
X4.37Y-2.78
X4.39Y-2.4418
X4.42Y-3.83
X4.432Y-1.8523
X4.44Y-3.76
X4.4673Y-1.7004
X4.47Y-4.61
X4.5Y-3.76
X4.57Y-2.81
X4.61Y-3.09
X4.659Y-3.051
X4.67Y-2.95
X4.69Y-3.67
X4.69Y-3.71
X4.69Y-3.75
X4.72Y-2.99
X4.74Y-3.63
X4.7872Y-1.4179
X4.79Y-3.61
X4.7906Y-1.7594
X4.81Y-3.56
X4.8334Y-3.5334
X4.87Y-3.51
X4.91Y-3.49
X4.9634Y-2.8976
X4.97Y-4.12
X5.1097Y-4.4902
X5.1644Y-4.8315
X5.1727Y-4.4173
X5.32Y-3.15
X5.36Y-2.61
X5.36Y-3.14
X5.42Y-2.24
X5.5156Y-4.4902
X5.52Y-2.23
X5.52Y-3.22
X5.53Y-3.14
X5.56Y-1.85
X5.5727Y-4.8303
X5.5774Y-4.4154
X5.7Y-1.85
X5.702Y-3.3528
X5.7469Y-3.4134
X5.77Y-2.1
X5.8292Y-3.2
X5.83Y-3.39
X5.8478Y-3.1468
X5.87Y-2.3
X5.87Y-3.4
X5.88Y-3.1
X5.92Y-2.42
X5.92Y-2.52
X5.9244Y-3.0044
X5.938Y-4.4902
X5.95Y-3.2
X5.9892Y-3.2
X5.99Y-3.38
X5.9943Y-4.8331
X6.0006Y-4.4173
X6.02Y-3.4
X6.1094Y-3.3772
X6.17Y-3.319
X6.1835Y-3.5969
X6.28Y-3.24
X6.28Y-3.32
X6.32Y-3.9122
X6.3494Y-4.4913
X6.38Y-2.98
X6.403Y-4.8323
X6.414Y-4.4165
X6.52Y-3.21
X6.52Y-4.5
X6.54Y-1.9
X6.58Y-4.43
X6.6142Y-3.3465
X6.6172Y-2.1039
X6.635Y-4.165
X6.64Y-4.09
X6.74Y-3.06
X6.77Y-2.23
X6.77Y-4.84
X6.7956Y-2.7968
X6.8Y-1.59
X6.8263Y-2.4928
X6.94Y-3.04
X6.9416Y-3.7604
X6.9424Y-3.5057
X6.9439Y-3.2368
X6.95Y-4.1
X7.0156Y-3.8265
X7.018Y-3.5663
X7.0195Y-3.3006
X7.03Y-4.16
X7.04Y-3.14
X7.0664Y-4.6364
X7.0857Y-2.7976
X7.24Y-1.858
X7.3609Y-3.2423
X7.3609Y-3.5116
X7.3617Y-3.7675
X7.37Y-4.1
X7.37Y-4.29
X7.4Y-1.45
X7.47Y-4.56
X7.48Y-1.83
X7.48Y-1.92
X7.61Y-4.89
X7.71Y-1.82
T2
X2.0734Y-1.6713
X2.0734Y-2.0158
X2.0734Y-2.3701
X2.0734Y-2.7343
X2.0734Y-3.0788
X2.0734Y-3.443
X2.0734Y-3.7973
X2.0734Y-4.1516
X2.0734Y-4.5059
X2.4967Y-1.7796
X2.4967Y-1.8288
X2.4967Y-1.878
X2.4967Y-2.1437
X2.4967Y-2.1831
X2.4967Y-2.2323
X2.4967Y-2.4882
X2.4967Y-2.5473
X2.4967Y-2.5867
X2.4967Y-2.8524
X2.4967Y-2.9016
X2.4967Y-2.9508
X2.4967Y-3.2067
X2.4967Y-3.2461
X2.4967Y-3.3052
X2.4967Y-3.5611
X2.4967Y-3.6103
X2.4967Y-3.6496
X2.4967Y-3.9154
X2.4967Y-3.9646
X2.4967Y-4.0138
X2.4967Y-4.2697
X2.4967Y-4.3288
X2.4967Y-4.3681
X2.4967Y-4.6142
X2.4967Y-4.6733
X2.4967Y-4.7225
X3.0183Y-2.3307
X3.0183Y-3.187
X3.0478Y-1.8288
X3.0577Y-2.7638
X3.0675Y-1.9272
X3.0774Y-2.3898
X3.0774Y-3.253
X3.0774Y-4.2205
X3.1167Y-2.6949
X3.1463Y-4.2894
X3.7368Y-2.7806
X3.7959Y-2.8101
X3.914Y-2.1506
X3.9238Y-2.0817
X4.3963Y-2.9282
X4.3963Y-2.9676
X4.4555Y-2.1154
X4.5636Y-2.377
X4.5636Y-2.6132
X4.602Y-3.3081
X4.6128Y-2.2983
X4.6565Y-2.2953
X4.7014Y-2.564
X4.7211Y-2.6428
X4.7801Y-2.3967
X4.7801Y-2.4656
T3
X1.4862Y-5.315
X1.5122Y-5.2523
X1.5122Y-5.3776
X1.5748Y-5.2264
X1.5748Y-5.4035
X1.6374Y-5.2523
X1.6374Y-5.3776
X1.6634Y-5.315
X1.4862Y-1.1811
X1.5122Y-1.1185
X1.5122Y-1.2437
X1.5748Y-1.0925
X1.5748Y-1.2697
X1.6374Y-1.1185
X1.6374Y-1.2437
X1.6634Y-1.1811
X7.9823Y-5.315
X8.0082Y-5.2523
X8.0082Y-5.3776
X8.0709Y-5.2264
X8.0709Y-5.4035
X8.1335Y-5.2523
X8.1335Y-5.3776
X8.1594Y-5.315
X7.9823Y-1.1811
X8.0082Y-1.1185
X8.0082Y-1.2437
X8.0709Y-1.0925
X8.0709Y-1.2697
X8.1335Y-1.1185
X8.1335Y-1.2437
X8.1594Y-1.1811
T4
X3.5924Y-1.18
X3.6908Y-1.18
X3.7892Y-1.18
X5.4882Y-5.2163
X5.5866Y-5.2163
X5.685Y-5.2163
X5.7835Y-5.2163
X5.0618Y-5.2181
X5.1602Y-5.2181
X5.2587Y-5.2181
X5.3571Y-5.2181
X1.6952Y-2.2059
X1.6952Y-2.3044
X1.6952Y-2.4028
X1.6952Y-2.5012
X5.5631Y-1.2
X5.6616Y-1.2
X5.76Y-1.2
X5.8584Y-1.2
X5.9569Y-1.2
X1.6834Y-4.487
X1.6834Y-4.6839
X8.1569Y-3.8088
X8.1569Y-3.9072
X8.1569Y-4.0057
X2.6774Y-5.1902
X2.6774Y-5.2902
X2.7774Y-5.1902
X2.7774Y-5.2902
X2.8774Y-5.1902
X2.8774Y-5.2902
X2.9774Y-5.1902
X2.9774Y-5.2902
X3.0774Y-5.1902
X3.0774Y-5.2902
X1.6834Y-2.7556
X1.6834Y-2.9524
X8.1664Y-3.1596
X8.1664Y-3.258
X8.1664Y-3.3565
X7.98Y-2.49
X7.98Y-2.5884
X7.98Y-2.6869
X4.0224Y-1.19
X4.1208Y-1.19
X4.2192Y-1.19
X1.6834Y-3.3264
X1.6834Y-3.5233
X3.8898Y-3.6
X4.1102Y-3.6
X1.6834Y-1.7374
X1.6834Y-1.9343
X6.5124Y-1.31
X6.6108Y-1.31
X6.7092Y-1.31
X6.8076Y-1.31
X6.9824Y-1.3
X7.0808Y-1.3
X7.1792Y-1.3
X7.2776Y-1.3
X8.09Y-4.5724
X8.09Y-4.6708
X8.09Y-4.7692
X8.09Y-4.8676
X7.2681Y-5.1087
X7.2681Y-5.2087
X7.2681Y-5.3087
X5.9228Y-5.2203
X6.0213Y-5.2203
X6.1197Y-5.2203
X6.2181Y-5.2203
X4.9131Y-1.26
X5.0116Y-1.26
X5.11Y-1.26
X5.2084Y-1.26
X5.3069Y-1.26
X7.5224Y-5.2
X7.6208Y-5.2
X7.7192Y-5.2
X3.5722Y-4.5704
X3.5722Y-5.0704
X3.5722Y-5.3704
X4.7722Y-4.5704
X4.7722Y-4.9704
X4.7722Y-5.0704
X4.7722Y-5.3704
X6.7724Y-5.22
X6.8708Y-5.22
X6.9692Y-5.22
X7.0676Y-5.22
X6.3492Y-5.2163
X6.4476Y-5.2163
X6.5461Y-5.2163
X6.6445Y-5.2163
X5.485Y-3.515
X5.485Y-3.7799
X5.585Y-3.515
X5.585Y-3.7799
X5.685Y-3.515
X5.685Y-3.7799
X5.785Y-3.515
X5.785Y-3.7799
X5.885Y-3.515
X5.885Y-3.7799
X5.985Y-3.515
X5.985Y-3.7799
X6.085Y-3.515
X6.085Y-3.7799
X6.185Y-3.515
X6.185Y-3.7799
X6.285Y-3.515
X6.285Y-3.7799
X6.385Y-3.515
X6.385Y-3.7799
X1.6952Y-3.7843
X1.6952Y-3.8827
X1.6952Y-3.9811
X1.6952Y-4.0796
X1.6952Y-4.178
T5
X5.56Y-1.61
X5.56Y-2.41
X5.56Y-2.71
X5.66Y-1.61
X5.66Y-2.41
X5.66Y-2.71
X5.76Y-1.61
X5.76Y-2.71
X5.86Y-1.61
X5.86Y-2.71
X5.96Y-1.61
X5.96Y-2.71
T6
X7.6522Y-4.0198
X7.6522Y-4.197
X7.9081Y-4.0198
X7.9081Y-4.197
X1.9451Y-5.2032
X1.9451Y-5.3804
X2.201Y-5.2032
X2.201Y-5.3804
X7.9541Y-1.7367
X7.9541Y-1.9926
X8.1312Y-1.7367
X8.1312Y-1.9926
X7.6457Y-3.6618
X7.6457Y-3.8389
X7.9017Y-3.6618
X7.9017Y-3.8389
X7.6457Y-2.9504
X7.6457Y-3.1275
X7.9017Y-2.9504
X7.9017Y-3.1275
X7.6473Y-3.307
X7.6473Y-3.4842
X7.9032Y-3.307
X7.9032Y-3.4842
T7
X3.249Y-1.0772
X3.249Y-1.6772
T8
X2.9667Y-2.1756
X2.3853Y-1.8053
X2.3853Y-4.2903
X2.3853Y-4.6453
X2.3853Y-3.5753
X2.9589Y-3.027
X2.3853Y-3.2253
X2.3726Y-2.8705
X3.0317Y-4.071
X2.3853Y-2.5153
X2.3853Y-2.1553
X2.3853Y-3.9353
T9
X3.6722Y-4.4669
X3.6722Y-5.4905
X4.6722Y-4.4669
X4.6722Y-5.4905
T10
X2.8Y-1.1801
X2.9559Y-1.1801
T11
X1.5748Y-5.315
X1.5748Y-1.1811
X8.0709Y-5.315
X8.0709Y-1.1811
T12
X2.1646Y-1.189
X2.3535Y-1.0551
T13
X2.3535Y-1.3031
T0
M30
