M48
; DRILL file {KiCad (5.1.6)-1} date 04/08/21 18:08:20
; FORMAT={-:-/ absolute / inch / decimal}
; #@! TF.CreationDate,2021-04-08T18:08:20+09:00
; #@! TF.GenerationSoftware,Kicad,Pcbnew,(5.1.6)-1
; #@! TF.FileFunction,Plated,1,2,PTH
FMAT,2
INCH
T1C0.0118
T2C0.0197
T3C0.0394
T4C0.0433
T5C0.0472
T6C0.0591
T7C0.0709
T8C0.0787
T9C0.1181
T10C0.1320
T11C0.1471
%
G90
G05
T1
X2.0732Y-2.0189
X2.0732Y-3.0843
X2.0744Y-4.5039
X2.0752Y-2.7287
X2.0752Y-3.4398
X2.0752Y-4.1516
X2.076Y-1.6642
X2.076Y-3.7972
X2.1535Y-2.3323
X2.2831Y-4.8894
X2.3902Y-4.8772
X2.6024Y-4.7909
X2.6063Y-4.3937
X2.6075Y-2.3016
X2.6126Y-1.9492
X2.6126Y-2.6594
X2.6126Y-3.0185
X2.64Y-4.0
X2.6413Y-4.1905
X2.6539Y-2.1118
X2.6627Y-3.1338
X2.674Y-3.2732
X2.6744Y-3.9465
X2.6756Y-3.2449
X2.6764Y-2.5087
X2.6821Y-3.6703
X2.685Y-3.6969
X2.685Y-3.9843
X2.698Y-4.113
X2.7055Y-2.9067
X2.7055Y-3.9634
X2.7083Y-3.1449
X2.71Y-3.45
X2.71Y-3.52
X2.71Y-3.59
X2.7157Y-2.5776
X2.7205Y-4.1661
X2.7209Y-2.6398
X2.7295Y-2.4484
X2.7417Y-2.9016
X2.76Y-4.05
X2.76Y-4.5
X2.76Y-4.58
X2.7614Y-3.1154
X2.7646Y-3.1956
X2.7646Y-2.1602
X2.77Y-4.43
X2.7937Y-3.1492
X2.7969Y-4.0516
X2.8051Y-4.1172
X2.8055Y-4.0067
X2.8071Y-1.9913
X2.8157Y-1.8776
X2.822Y-4.1685
X2.8323Y-2.1114
X2.839Y-3.1067
X2.8441Y-4.0748
X2.8504Y-4.3177
X2.8504Y-4.5224
X2.8512Y-4.4165
X2.8555Y-2.3224
X2.8566Y-2.4634
X2.8566Y-2.4934
X2.8567Y-2.4268
X2.8571Y-3.5429
X2.8579Y-3.4449
X2.8638Y-3.3343
X2.8776Y-2.1606
X2.8984Y-1.8949
X2.903Y-2.2183
X2.9124Y-4.3184
X2.9124Y-4.4161
X2.9124Y-4.5224
X2.922Y-3.3335
X2.922Y-3.4435
X2.922Y-3.5428
X2.9354Y-2.0866
X2.9591Y-3.7051
X2.9677Y-1.9638
X3.0055Y-3.9516
X3.026Y-1.9398
X3.0504Y-2.9689
X3.0539Y-2.9
X3.06Y-2.65
X3.0866Y-3.9496
X3.0996Y-2.6804
X3.1366Y-3.6394
X3.1398Y-2.9118
X3.14Y-2.27
X3.1504Y-2.974
X3.16Y-2.65
X3.1626Y-1.4571
X3.1638Y-4.0583
X3.1961Y-4.2882
X3.2028Y-2.0803
X3.2067Y-3.0764
X3.2067Y-3.3024
X3.2091Y-3.6791
X3.22Y-2.64
X3.2504Y-2.9087
X3.2559Y-3.9307
X3.2626Y-1.952
X3.29Y-2.59
X3.29Y-3.58
X3.29Y-4.56
X3.385Y-4.4906
X3.3992Y-3.522
X3.402Y-2.5248
X3.4461Y-4.4929
X3.4638Y-2.5248
X3.4638Y-3.5217
X3.4693Y-3.6531
X3.5051Y-4.4929
X3.5209Y-3.5228
X3.5276Y-2.5244
X3.5449Y-3.6531
X3.555Y-4.36
X3.565Y-1.8949
X3.5705Y-3.8673
X3.576Y-3.6465
X3.5846Y-2.8835
X3.587Y-4.4929
X3.59Y-2.44
X3.59Y-3.38
X3.5972Y-3.4599
X3.6004Y-3.5228
X3.6024Y-1.7791
X3.613Y-3.765
X3.6209Y-1.8138
X3.6319Y-2.7709
X3.6331Y-3.8004
X3.6414Y-2.462
X3.6421Y-2.5244
X3.65Y-2.8039
X3.69Y-4.31
X3.6966Y-2.6489
X3.6991Y-3.18
X3.71Y-2.59
X3.71Y-3.35
X3.72Y-3.47
X3.73Y-2.65
X3.73Y-2.71
X3.73Y-4.1566
X3.7314Y-3.1784
X3.7535Y-2.0035
X3.7756Y-3.075
X3.7789Y-3.1072
X3.79Y-4.1566
X3.8Y-3.14
X3.8Y-3.34
X3.8248Y-3.4152
X3.8268Y-3.16
X3.8512Y-3.1345
X3.86Y-1.81
X3.8688Y-3.354
X3.8697Y-3.3203
X3.87Y-3.39
X3.87Y-4.15
X3.87Y-4.3039
X3.8756Y-3.16
X3.9028Y-2.2047
X3.9156Y-2.73
X3.92Y-1.91
X3.9347Y-2.1614
X3.94Y-1.77
X3.94Y-2.76
X3.9644Y-2.57
X3.98Y-1.77
X3.9827Y-1.9066
X3.9874Y-2.3181
X4.0165Y-2.3555
X4.0262Y-2.9164
X4.0505Y-2.6145
X4.0539Y-2.7214
X4.0613Y-3.1738
X4.0672Y-2.462
X4.07Y-2.9
X4.08Y-2.6389
X4.0894Y-2.2535
X4.09Y-2.87
X4.1185Y-2.2831
X4.16Y-2.33
X4.2079Y-3.8205
X4.21Y-2.12
X4.21Y-3.33
X4.21Y-3.4276
X4.2118Y-3.3788
X4.216Y-3.4765
X4.2244Y-4.1622
X4.2278Y-2.2241
X4.24Y-3.3544
X4.24Y-3.4032
X4.24Y-3.452
X4.2441Y-3.5009
X4.2568Y-2.9539
X4.2597Y-3.5504
X4.28Y-1.49
X4.28Y-3.5253
X4.2889Y-2.4811
X4.3Y-2.33
X4.3134Y-3.9587
X4.3165Y-3.8894
X4.329Y-2.3634
X4.3317Y-2.0435
X4.3406Y-2.5837
X4.3406Y-2.748
X4.363Y-2.335
X4.3728Y-2.5126
X4.38Y-1.8
X4.3823Y-3.8894
X4.3829Y-4.1
X4.3831Y-4.2256
X4.3839Y-3.9587
X4.3876Y-2.0976
X4.39Y-2.46
X4.4Y-2.55
X4.41Y-3.03
X4.4124Y-2.33
X4.4246Y-3.375
X4.4477Y-2.5766
X4.45Y-2.28
X4.45Y-2.48
X4.4502Y-2.73
X4.4593Y-2.153
X4.48Y-2.3
X4.4863Y-3.3751
X4.49Y-2.47
X4.4951Y-4.0995
X4.51Y-2.61
X4.5531Y-3.0609
X4.56Y-2.33
X4.563Y-3.6913
X4.6054Y-2.2935
X4.6165Y-3.6898
X4.6185Y-2.35
X4.6194Y-2.0498
X4.6195Y-2.47
X4.6195Y-2.5023
X4.6195Y-2.54
X4.6278Y-2.2199
X4.65Y-2.06
X4.6622Y-2.9678
X4.68Y-3.3
X4.77Y-2.75
X4.7723Y-2.8323
X4.78Y-2.79
X4.78Y-2.87
X4.7872Y-3.0928
X4.8273Y-3.0527
X4.83Y-2.9121
X4.9014Y-2.2963
X4.9114Y-2.8315
X4.9114Y-2.8587
X4.9114Y-3.0551
X4.9268Y-3.8602
X4.9569Y-3.3302
X4.9622Y-2.9217
X4.9829Y-3.3967
X5.0165Y-3.8602
X5.1439Y-2.7668
X5.1445Y-3.1155
X5.19Y-3.0
X5.2094Y-1.7031
X5.2101Y-3.1211
X5.2214Y-2.4872
X5.23Y-1.6
X5.2596Y-2.9469
X5.27Y-2.75
X5.29Y-2.35
X5.3Y-2.7767
X5.31Y-4.52
X5.32Y-3.01
X5.33Y-2.35
X5.3638Y-4.8587
X5.37Y-4.45
X5.3921Y-3.0165
X5.4205Y-1.7051
X5.43Y-1.59
X5.45Y-2.63
X5.5Y-1.95
X5.54Y-2.94
X5.56Y-1.76
X5.5677Y-1.8023
X5.64Y-1.59
X5.67Y-2.73
X5.7Y-2.18
X5.7Y-2.51
X5.71Y-4.52
X5.73Y-2.5344
X5.7701Y-4.8614
X5.78Y-4.44
X5.81Y-2.18
X5.83Y-1.78
X5.87Y-1.8
X5.98Y-1.78
X6.01Y-1.8
X6.07Y-2.03
X6.13Y-4.52
X6.17Y-2.25
X6.1929Y-4.8614
X6.2Y-4.44
X6.21Y-2.36
X6.21Y-2.46
X6.2113Y-2.7858
X6.2113Y-2.8478
X6.2713Y-2.8478
X6.31Y-1.08
X6.3311Y-1.8633
X6.35Y-3.99
X6.366Y-4.026
X6.4006Y-2.6678
X6.45Y-4.1
X6.4637Y-4.0708
X6.54Y-1.9
X6.55Y-4.52
X6.6043Y-4.8622
X6.61Y-4.45
X6.6109Y-2.8009
X6.62Y-2.11
X6.72Y-4.53
X6.78Y-2.45
X6.78Y-4.46
X6.79Y-2.8
X6.81Y-3.24
X6.81Y-3.51
X6.81Y-3.76
X6.82Y-4.1
X6.86Y-2.69
X6.87Y-2.45
X6.89Y-3.3
X6.89Y-3.57
X6.89Y-3.83
X6.9Y-2.65
X6.9Y-4.16
X6.94Y-3.01
X6.9657Y-4.8642
X7.03Y-4.46
X7.07Y-4.45
X7.09Y-2.8
X7.1Y-4.78
X7.11Y-1.9
X7.16Y-4.634
X7.19Y-1.92
X7.23Y-3.24
X7.23Y-3.51
X7.23Y-3.77
X7.24Y-4.1
X7.39Y-2.15
X7.46Y-1.81
X7.46Y-1.8713
X7.5043Y-4.7263
X7.54Y-2.7
X7.55Y-2.59
X7.5799Y-4.9622
X7.5815Y-4.9014
X7.6181Y-2.5271
X7.6969Y-2.6772
X7.7156Y-2.4606
X7.73Y-1.59
X7.92Y-2.15
T2
X1.4862Y-5.315
X1.5122Y-5.2523
X1.5122Y-5.3776
X1.5748Y-5.2264
X1.5748Y-5.4035
X1.6374Y-5.2523
X1.6374Y-5.3776
X1.6634Y-5.315
X7.9823Y-1.1811
X8.0082Y-1.1185
X8.0082Y-1.2437
X8.0709Y-1.0925
X8.0709Y-1.2697
X8.1335Y-1.1185
X8.1335Y-1.2437
X8.1594Y-1.1811
X1.4862Y-1.1811
X1.5122Y-1.1185
X1.5122Y-1.2437
X1.5748Y-1.0925
X1.5748Y-1.2697
X1.6374Y-1.1185
X1.6374Y-1.2437
X1.6634Y-1.1811
X7.9823Y-5.315
X8.0082Y-5.2523
X8.0082Y-5.3776
X8.0709Y-5.2264
X8.0709Y-5.4035
X8.1335Y-5.2523
X8.1335Y-5.3776
X8.1594Y-5.315
T3
X6.2864Y-2.9636
X6.2864Y-3.062
X6.2864Y-3.1604
X6.5143Y-1.3087
X6.6128Y-1.3087
X6.7112Y-1.3087
X6.8096Y-1.3087
X8.0709Y-1.9193
X8.0709Y-2.0177
X8.0709Y-2.1161
X1.6952Y-3.7843
X1.6952Y-3.8827
X1.6952Y-3.9811
X1.6952Y-4.0796
X1.6952Y-4.178
X2.1552Y-1.1622
X2.1552Y-1.2622
X2.2552Y-1.1622
X2.2552Y-1.2622
X2.3552Y-1.1622
X2.3552Y-1.2622
X2.4552Y-1.1622
X2.4552Y-1.2622
X2.5552Y-1.1622
X2.5552Y-1.2622
X5.2618Y-5.2481
X5.3602Y-5.2481
X5.4587Y-5.2481
X5.5571Y-5.2481
X8.0269Y-3.8088
X8.0269Y-3.9072
X8.0269Y-4.0057
X1.6834Y-1.7374
X1.6834Y-1.9343
X3.8Y-4.56
X3.8Y-5.06
X3.8Y-5.36
X5.0Y-4.56
X5.0Y-4.96
X5.0Y-5.06
X5.0Y-5.36
X1.6834Y-2.7556
X1.6834Y-2.9524
X8.0213Y-4.3047
X8.0213Y-4.4031
X8.0213Y-4.5016
X8.0213Y-4.6
X5.6882Y-5.2463
X5.7866Y-5.2463
X5.885Y-5.2463
X5.9835Y-5.2463
X5.7498Y-2.95
X5.9702Y-2.95
X8.0364Y-3.1596
X8.0364Y-3.258
X8.0364Y-3.3565
X6.1228Y-5.2503
X6.2213Y-5.2503
X6.3197Y-5.2503
X6.4181Y-5.2503
X5.8836Y-1.262
X5.982Y-1.262
X6.0805Y-1.262
X6.1789Y-1.262
X6.2773Y-1.262
X1.6834Y-3.3264
X1.6834Y-3.5233
X7.9043Y-2.3622
X7.9043Y-2.4622
X7.9043Y-2.5622
X7.9043Y-2.6622
X7.9043Y-2.7622
X7.9043Y-2.8622
X8.1693Y-2.3622
X8.1693Y-2.4622
X8.1693Y-2.5622
X8.1693Y-2.6622
X8.1693Y-2.7622
X8.1693Y-2.8622
X6.5492Y-5.2463
X6.6476Y-5.2463
X6.7461Y-5.2463
X6.8445Y-5.2463
X7.0424Y-1.31
X7.1408Y-1.31
X7.2392Y-1.31
X7.3376Y-1.31
X3.9937Y-1.2067
X4.0921Y-1.2067
X4.1906Y-1.2067
X4.7059Y-1.2083
X4.8043Y-1.2083
X4.9028Y-1.2083
X6.2864Y-3.2844
X6.2864Y-3.3829
X6.2864Y-3.4813
X6.2864Y-3.5797
X6.2864Y-3.6781
X4.3776Y-1.2079
X4.4761Y-1.2079
X4.5745Y-1.2079
X8.0176Y-4.7519
X8.0176Y-4.8503
X8.0176Y-4.9487
X8.0176Y-5.0472
X5.2461Y-1.2205
X5.3445Y-1.2205
X5.4429Y-1.2205
X5.5413Y-1.2205
X1.6952Y-2.2059
X1.6952Y-2.3044
X1.6952Y-2.4028
X1.6952Y-2.5012
X1.6834Y-4.487
X1.6834Y-4.6839
X3.6108Y-1.21
X3.7092Y-1.21
X3.8076Y-1.21
X6.9724Y-5.25
X7.0708Y-5.25
X7.1692Y-5.25
X7.2676Y-5.25
X7.5906Y-5.2197
X7.5906Y-5.3197
X7.5906Y-5.4197
T4
X3.0317Y-1.072
X3.0317Y-1.2492
X3.2876Y-1.072
X3.2876Y-1.2492
X7.537Y-3.4055
X7.537Y-3.5826
X7.7929Y-3.4055
X7.7929Y-3.5826
X7.9737Y-1.5033
X7.9737Y-1.7592
X8.1509Y-1.5033
X8.1509Y-1.7592
X7.5354Y-3.0488
X7.5354Y-3.2259
X7.7913Y-3.0488
X7.7913Y-3.2259
X7.5419Y-4.1183
X7.5419Y-4.2954
X7.7978Y-4.1183
X7.7978Y-4.2954
X7.5354Y-3.7602
X7.5354Y-3.9374
X7.7913Y-3.7602
X7.7913Y-3.9374
T5
X3.45Y-4.81
X3.45Y-5.41
T6
X2.4226Y-1.8053
X3.4989Y-2.2235
X2.4226Y-3.5753
X2.4226Y-2.1553
X3.4814Y-4.1712
X3.5094Y-3.2051
X2.4226Y-2.5153
X2.4226Y-4.2903
X2.4226Y-3.9353
X2.4226Y-2.8705
X2.4226Y-3.2253
X2.4226Y-4.6453
T7
X3.9Y-4.4565
X3.9Y-5.4801
X4.9Y-4.4565
X4.9Y-5.4801
T8
X2.102Y-5.14
X2.258Y-5.14
T9
X1.5748Y-5.315
X8.0709Y-1.1811
X1.5748Y-1.1811
X8.0709Y-5.315
T10
X2.87Y-5.288
X3.059Y-5.1542
T11
X2.87Y-5.04
T0
M30
